# xmcd
#
# Track frame offsets:
#	150
#	18571
#	36291
#	63503
#	83372
#
# Disc length: 1293 seconds
#
# Revision: 0
# Processed by: cddbd v1.5.2PL0 Copyright (c) Steve Scherf et al.
# Submitted via: dBpowerAMP V4.0
#
DISCID=34050b05
DTITLE=Jaimi Faulkner - Back To You (EP)
DYEAR=2006
DGENRE=Blues
TTITLE0=Back To You
TTITLE1=Comin' Home To Your Love
TTITLE2=Shame
TTITLE3=Special No. 94
TTITLE4=Roll, Tumble, Smuggle and Stumble
EXTD=
EXTT0=
EXTT1=
EXTT2=
EXTT3=
EXTT4=
PLAYORDER=
